HIERARCHY
ROOT root
{
	OFFSET	0	13.1	24.9
	CHANNELS 6  Xposition Yposition Zposition Xrotation Yrotation Zrotation
	JOINT spine_1
	{
		OFFSET	0	9.99999	0
		CHANNELS 3  Xrotation Yrotation Zrotation
		JOINT spine_2
		{
			OFFSET	0	112	-10
			CHANNELS 3  Xrotation Yrotation Zrotation
			JOINT spine_3
			{
				OFFSET	0	206.5	19.3
				CHANNELS 3  Xrotation Yrotation Zrotation
				JOINT spine_4
				{
					OFFSET	0	110.4	14.6
					CHANNELS 3  Xrotation Yrotation Zrotation
					JOINT neck_1
					{
						OFFSET	0	71.8	-50.3
						CHANNELS 3  Xrotation Yrotation Zrotation
						JOINT neck_2
						{
							OFFSET	0	86.2	-25.8
							CHANNELS 3  Xrotation Yrotation Zrotation
							JOINT head_ee
							{
								OFFSET	0	179.8	-8.7
								CHANNELS 3  Xrotation Yrotation Zrotation
								End Site
								{
									OFFSET	1	0	0
								}
							}
						}
					}
					JOINT left_clavicle
					{
						OFFSET	-43.2	22.4	-70.8
						CHANNELS 3  Xrotation Yrotation Zrotation
						JOINT left_shoulder
						{
							OFFSET	-93.9	-5.79999	48.7
							CHANNELS 3  Xrotation Yrotation Zrotation
							JOINT left_elbow
							{
								OFFSET	-291.4	-30.8	15.2
								CHANNELS 3  Xrotation Yrotation Zrotation
								JOINT left_lowarm_twist
								{
									OFFSET	-110.7	-3.89999	13.6
									CHANNELS 3  Xrotation Yrotation Zrotation
									JOINT left_hand
									{
										OFFSET	-110.7	-3.89999	13.6
										CHANNELS 3  Xrotation Yrotation Zrotation
										JOINT left_ee
										{
											OFFSET	-80.8	-5.10001	12.1
											CHANNELS 3  Xrotation Yrotation Zrotation
											End Site
											{
												OFFSET	1	0	0
											}
										}
									}
								}
							}
						}
					}
					JOINT right_clavicle
					{
						OFFSET	43.2	22.4	-70.8
						CHANNELS 3  Xrotation Yrotation Zrotation
						JOINT right_shoulder
						{
							OFFSET	93.9	-5.79999	48.7
							CHANNELS 3  Xrotation Yrotation Zrotation
							JOINT right_elbow
							{
								OFFSET	291.4	-30.8	15.2
								CHANNELS 3  Xrotation Yrotation Zrotation
								JOINT right_lowarm_twist
								{
									OFFSET	110.7	-3.89999	13.6
									CHANNELS 3  Xrotation Yrotation Zrotation
									JOINT right_hand
									{
										OFFSET	110.7	-3.89999	13.6
										CHANNELS 3  Xrotation Yrotation Zrotation
										JOINT right_ee
										{
											OFFSET	80.8	-5.10001	12.1
											CHANNELS 3  Xrotation Yrotation Zrotation
											End Site
											{
												OFFSET	1	0	0
											}
										}
									}
								}
							}
						}
					}
				}
			}
		}
	}
	JOINT left_hip
	{
		OFFSET	-82.8	-127.5	0.300001
		CHANNELS 3  Xrotation Yrotation Zrotation
		JOINT left_knee
		{
			OFFSET	-28.2	-396.7	2.2
			CHANNELS 3  Xrotation Yrotation Zrotation
			JOINT left_ankle
			{
				OFFSET	-11.7	-411.3	35.4
				CHANNELS 3  Xrotation Yrotation Zrotation
				JOINT left_toes
				{
					OFFSET	0	-60	-88.6
					CHANNELS 3  Xrotation Yrotation Zrotation
					JOINT left_foot_ee
					{
						OFFSET	-22.5	-16.5	-42.2
						CHANNELS 3  Xrotation Yrotation Zrotation
						End Site
						{
							OFFSET	1	0	0
						}
					}
				}
			}
		}
	}
	JOINT right_hip
	{
		OFFSET	82.8	-127.5	0.300001
		CHANNELS 3  Xrotation Yrotation Zrotation
		JOINT right_knee
		{
			OFFSET	28.2	-396.7	2.2
			CHANNELS 3  Xrotation Yrotation Zrotation
			JOINT right_ankle
			{
				OFFSET	11.7	-411.3	35.4
				CHANNELS 3  Xrotation Yrotation Zrotation
				JOINT right_toes
				{
					OFFSET	0	-60	-88.6
					CHANNELS 3  Xrotation Yrotation Zrotation
					JOINT right_foot_ee
					{
						OFFSET	22.5	-16.5	-42.2
						CHANNELS 3  Xrotation Yrotation Zrotation
						End Site
						{
							OFFSET	1	0	0
						}
					}
				}
			}
		}
	}
}
MOTION
Frames: 13
Frame Time: 0.02
3528.04988414 757.79 -1475.44795789 21.5250106865 80.0856094551 -31.348087578 -0.19901 1.33806 5.35588 -0.183609 0.995058 5.42986 -0.0789003 -0.174963 5.51725 -0.120676 0.697247 5.47594 -25.1814 3.42352 -4.2927 -25.2774 8.3918 -2.24444 -0.0 0.0 -0.0 -6.81544 24.4006 -6.41235 -2.05939 -24.4968 71.8875 0.666256 -18.2652 0.107107 -76.7534 -7.40872 5.31167 -0.844043 13.4564 0.235236 -0.0 0.0 -0.0 13.0576 25.6674 -25.8492 3.61253 14.5286 -62.9832 0.737993 20.0814 -0.13067 62.6582 2.01622 7.34761 -0.647646 -13.1637 -1.34092 0.0 0.0 0.0 -0.186739 15.9132 9.95197 -9.07385 0.265913 1.36572 31.7798 25.727 -4.32926 -34.2617 0.0 0.0 -0.0 0.0 -0.0 2.89235 13.1195 10.0993 -34.7892 0.168961 -5.25523 37.2233 5.93929 4.69874 -21.5572 0.0 0.0 0.0 0.0 0.0 
3528.11780473 757.79 -1477.33956338 17.5103718788 77.8799158523 -27.2588890394 -0.19901 1.33806 5.35588 -0.183609 0.995058 5.42986 -0.0789003 -0.174963 5.51725 -0.120676 0.697247 5.47594 -25.1814 3.42352 -4.2927 -25.2774 8.3918 -2.24444 -0.0 0.0 -0.0 -6.81544 24.4006 -6.41235 -2.05939 -24.4968 71.8875 0.666256 -18.2652 0.107107 -76.7534 -7.40872 5.31167 -0.844043 13.4564 0.235236 -0.0 0.0 -0.0 13.0576 25.6674 -25.8492 3.61253 14.5286 -62.9832 0.737993 20.0814 -0.13067 62.6582 2.01622 7.34761 -0.647646 -13.1637 -1.34092 0.0 0.0 0.0 -0.186739 15.9132 9.95197 -9.07385 0.265913 1.36572 31.7798 25.727 -4.32926 -34.2617 0.0 0.0 -0.0 0.0 -0.0 2.89235 13.1195 10.0993 -34.7892 0.168961 -5.25523 37.2233 5.93929 4.69874 -21.5572 0.0 0.0 0.0 0.0 0.0 
3528.18751513 757.79 -1478.3714902 15.8852969569 76.6558237165 -25.5929487536 -0.19901 1.33806 5.35588 -0.183609 0.995058 5.42986 -0.0789003 -0.174963 5.51725 -0.120676 0.697247 5.47594 -25.1814 3.42352 -4.2927 -25.2774 8.3918 -2.24444 -0.0 0.0 -0.0 -6.81544 24.4006 -6.41235 -2.05939 -24.4968 71.8875 0.666256 -18.2652 0.107107 -76.7534 -7.40872 5.31167 -0.844043 13.4564 0.235236 -0.0 0.0 -0.0 13.0576 25.6674 -25.8492 3.61253 14.5286 -62.9832 0.737993 20.0814 -0.13067 62.6582 2.01622 7.34761 -0.647646 -13.1637 -1.34092 0.0 0.0 0.0 -0.186739 15.9132 9.95197 -9.07385 0.265913 1.36572 31.7798 25.727 -4.32926 -34.2617 0.0 0.0 -0.0 0.0 -0.0 2.89235 13.1195 10.0993 -34.7892 0.168961 -5.25523 37.2233 5.93929 4.69874 -21.5572 0.0 0.0 0.0 0.0 0.0 
3519.52021515 756.708 -1480.25735018 22.1772869713 77.1034342958 -31.9118765277 -0.512879 1.65172 5.35323 -0.497893 1.30825 5.4471 -0.360934 0.101349 5.60063 -0.403333 0.98323 5.51485 -25.6085 3.29628 -4.89591 -25.6916 8.35973 -2.85019 -0.0 0.0 -0.0 -6.92753 26.1049 -6.01558 -3.6833 -23.9164 70.0378 0.709755 -19.3713 0.121139 -77.5174 -7.50612 5.30628 -0.771121 10.8919 -0.41288 -0.0 0.0 -0.0 12.972 27.2833 -25.4556 4.77084 16.9412 -62.0293 0.696262 19.0298 -0.116702 62.469 1.9986 7.33092 -0.740788 -15.2931 -1.6654 0.0 0.0 0.0 1.61405 14.865 9.62824 -9.14287 0.267102 1.37624 34.4265 27.0181 -4.66081 -32.3887 0.0 0.0 -0.0 0.0 -0.0 3.46952 13.9158 10.1126 -40.9421 0.527788 -6.12965 39.1049 2.56208 4.82192 -20.5316 0.0 0.0 0.0 0.0 0.0 
3519.4819411 756.708 -1479.86299725 22.8763409393 77.483469026 -32.6284761573 -0.512879 1.65172 5.35323 -0.497893 1.30825 5.4471 -0.360934 0.101349 5.60063 -0.403333 0.98323 5.51485 -25.6085 3.29628 -4.89591 -25.6916 8.35973 -2.85019 -0.0 0.0 -0.0 -6.92753 26.1049 -6.01558 -3.6833 -23.9164 70.0378 0.709755 -19.3713 0.121139 -77.5174 -7.50612 5.30628 -0.771121 10.8919 -0.41288 -0.0 0.0 -0.0 12.972 27.2833 -25.4556 4.77084 16.9412 -62.0293 0.696262 19.0298 -0.116702 62.469 1.9986 7.33092 -0.740788 -15.2931 -1.6654 0.0 0.0 0.0 1.61405 14.865 9.62824 -9.14287 0.267102 1.37624 34.4265 27.0181 -4.66081 -32.3887 0.0 0.0 -0.0 0.0 -0.0 3.46952 13.9158 10.1126 -40.9421 0.527788 -6.12965 39.1049 2.56208 4.82192 -20.5316 0.0 0.0 0.0 0.0 0.0 
3514.51350414 755.488 -1480.18188391 27.6391685401 78.8322219018 -37.6196095031 -0.620122 1.64463 5.37413 -0.605 1.29985 5.46751 -0.467794 0.0781853 5.6189 -0.510534 0.963228 5.53654 -25.8456 3.2389 -4.97743 -25.9249 8.26063 -2.9449 -0.0 0.0 -0.0 -7.06274 25.977 -6.23795 -4.84235 -23.6609 69.952 0.683083 -18.6948 0.112441 -77.5066 -7.50475 5.30636 -0.711553 10.7344 -0.101238 -0.0 0.0 -0.0 13.0684 27.416 -25.6605 7.5583 18.1618 -60.6345 0.716245 19.535 -0.123301 62.5631 2.00735 7.33922 -0.668974 -15.1367 -2.04323 0.0 0.0 0.0 3.5686 15.1093 8.92498 -9.05623 0.265607 1.36303 34.3341 27.0188 -4.65075 -32.2969 0.0 0.0 -0.0 0.0 -0.0 2.59641 13.2702 10.4594 -41.8862 0.591109 -6.26029 39.1955 2.60781 4.83038 -20.2975 0.0 0.0 0.0 0.0 0.0 
3516.62590748 756.51 -1478.99791502 29.2089920742 81.3854194426 -39.3465275605 -0.77984 1.24948 5.60081 -0.762839 0.891141 5.66866 -0.660788 -0.386 5.7251 -0.706117 0.521503 5.71439 -26.6168 2.96877 -5.80764 -26.6676 7.9946 -3.83092 -0.0 0.0 -0.0 -6.69458 24.8328 -6.1086 -5.57025 -23.415 69.6717 0.615868 -16.9662 0.0918572 -76.8461 -7.42055 5.31108 -0.487593 9.74866 0.910384 -0.0 0.0 -0.0 13.2638 26.3903 -26.2406 9.37503 18.2117 -59.1344 1.08635 28.286 -0.273747 62.0741 1.96202 7.2959 -0.704037 -13.0019 -0.917968 0.0 0.0 0.0 9.49058 15.7526 7.23929 -9.08841 0.266165 1.36794 28.8114 27.2506 -4.02513 -34.0303 0.0 0.0 -0.0 0.0 -0.0 1.13353 12.2373 10.7491 -35.5492 0.208156 -5.36521 39.0829 3.3524 4.82931 -21.0544 0.0 0.0 0.0 0.0 0.0 
3515.70177109 752.974 -1477.28657848 26.4212666856 82.1031850065 -36.7099597551 -0.904401 1.08077 5.75871 -0.886245 0.712774 5.81554 -0.799198 -0.607614 5.82743 -0.84641 0.31872 5.85027 -27.1359 2.91943 -6.29457 -27.1754 8.03021 -4.29468 -0.0 0.0 -0.0 -6.53784 24.933 -5.86284 -6.9854 -23.1346 69.4824 0.52514 -14.5819 0.0671881 -76.5498 -7.38275 5.31288 -0.340078 9.40244 1.7119 -0.0 0.0 -0.0 13.437 25.2261 -26.7802 12.2622 19.6073 -58.1791 1.28552 32.4879 -0.374563 61.7505 1.93223 7.26702 -0.752247 -12.2695 -0.300637 0.0 0.0 0.0 14.381 16.2557 6.3757 -10.6719 0.290188 1.60972 25.2231 27.8967 -3.60046 -34.1336 0.0 0.0 -0.0 0.0 -0.0 0.754058 12.3648 11.0066 -33.7175 0.11618 -5.09928 39.4662 3.01395 4.85873 -21.5087 0.0 0.0 0.0 0.0 0.0 
3515.68499231 752.974 -1476.8666731 27.7994763173 82.4678739659 -38.1007487626 -0.904401 1.08077 5.75871 -0.886245 0.712774 5.81554 -0.799198 -0.607614 5.82743 -0.84641 0.31872 5.85027 -27.1359 2.91943 -6.29457 -27.1754 8.03021 -4.29468 -0.0 0.0 -0.0 -6.53784 24.933 -5.86284 -6.9854 -23.1346 69.4824 0.52514 -14.5819 0.0671881 -76.5498 -7.38275 5.31288 -0.340078 9.40244 1.7119 -0.0 0.0 -0.0 13.437 25.2261 -26.7802 12.2622 19.6073 -58.1791 1.28552 32.4879 -0.374563 61.7505 1.93223 7.26702 -0.752247 -12.2695 -0.300637 0.0 0.0 0.0 14.381 16.2557 6.3757 -10.6719 0.290188 1.60972 25.2231 27.8967 -3.60046 -34.1336 0.0 0.0 -0.0 0.0 -0.0 0.754058 12.3648 11.0066 -33.7175 0.11618 -5.09928 39.4662 3.01395 4.85873 -21.5087 0.0 0.0 0.0 0.0 0.0 
3514.27459658 742.272 -1475.37722484 24.7620390312 83.5152264766 -35.4087350064 -0.813767 1.11467 5.86321 -0.794958 0.739994 5.92197 -0.70368 -0.59494 5.93824 -0.752681 0.348645 5.9577 -22.7471 2.53827 -5.71862 -22.7588 7.53017 -4.12372 -0.0 0.0 -0.0 -6.36856 24.4016 -5.79397 -7.81111 -23.136 69.1109 0.484713 -13.502 0.0573787 -76.9087 -7.42852 5.31068 0.609727 7.49192 7.09578 -0.0 0.0 -0.0 13.5334 24.7389 -27.0595 15.1784 19.2142 -57.7906 1.54977 37.5111 -0.526271 62.133 1.96746 7.30114 -0.594018 -5.82456 1.45402 0.0 0.0 0.0 19.2457 17.2128 6.58944 -12.9308 0.312873 1.95555 18.3176 28.2534 -2.69846 -34.4165 0.0 0.0 -0.0 0.0 -0.0 -3.76652 11.5282 11.5534 -21.142 -0.280318 -3.21391 40.6729 3.57832 4.96912 -20.7658 0.0 0.0 0.0 0.0 0.0 
3467.37323844 735.104 -1468.65095056 39.7188531379 85.1403205312 -51.9188070145 -1.42199 1.50886 6.18585 -1.4014 1.11297 6.26888 -1.25843 -0.368306 6.3559 -1.31419 0.63805 6.3346 -20.0702 3.65162 -7.35432 -20.0921 10.7682 -5.30977 -0.0 0.0 -0.0 -6.09314 24.4489 -5.40044 -9.55262 -22.5259 68.3198 0.193889 -5.4864 0.00929007 -79.3664 -7.7414 5.28783 0.771553 8.21605 8.43774 -0.0 0.0 -0.0 14.3455 26.302 -28.776 21.5246 16.6994 -57.1888 2.05692 45.532 -0.86329 61.3284 1.89361 7.2291 -0.713237 1.79481 5.54948 0.0 0.0 0.0 26.2971 15.5513 5.76175 -19.1943 0.304355 2.91605 14.7687 28.6852 -2.21062 -36.7398 0.0 0.0 -0.0 0.0 -0.0 -15.8135 9.14965 13.8271 -2.13292 -0.0819266 -0.31706 39.9514 2.96357 4.90011 -26.9749 0.0 0.0 0.0 0.0 0.0 
3467.42455345 735.104 -1467.80624237 43.3751786687 85.4789465664 -55.5873937892 -1.42199 1.50886 6.18585 -1.4014 1.11297 6.26888 -1.25843 -0.368306 6.3559 -1.31419 0.63805 6.3346 -20.0702 3.65162 -7.35432 -20.0921 10.7682 -5.30977 -0.0 0.0 -0.0 -6.09314 24.4489 -5.40044 -9.55262 -22.5259 68.3198 0.193889 -5.4864 0.00929007 -79.3664 -7.7414 5.28783 0.771553 8.21605 8.43774 -0.0 0.0 -0.0 14.3455 26.302 -28.776 21.5246 16.6994 -57.1888 2.05692 45.532 -0.86329 61.3284 1.89361 7.2291 -0.713237 1.79481 5.54948 0.0 0.0 0.0 26.2971 15.5513 5.76175 -19.1943 0.304355 2.91605 14.7687 28.6852 -2.21062 -36.7398 0.0 0.0 -0.0 0.0 -0.0 -15.8135 9.14965 13.8271 -2.13292 -0.0819266 -0.31706 39.9514 2.96357 4.90011 -26.9749 0.0 0.0 0.0 0.0 0.0 
3467.47715997 735.104 -1467.03630333 47.2059530207 85.7692375819 -59.4293470924 -1.42199 1.50886 6.18585 -1.4014 1.11297 6.26888 -1.25843 -0.368306 6.3559 -1.31419 0.63805 6.3346 -20.0702 3.65162 -7.35432 -20.0921 10.7682 -5.30977 -0.0 0.0 -0.0 -6.09314 24.4489 -5.40044 -9.55262 -22.5259 68.3198 0.193889 -5.4864 0.00929007 -79.3664 -7.7414 5.28783 0.771553 8.21605 8.43774 -0.0 0.0 -0.0 14.3455 26.302 -28.776 21.5246 16.6994 -57.1888 2.05692 45.532 -0.86329 61.3284 1.89361 7.2291 -0.713237 1.79481 5.54948 0.0 0.0 0.0 26.2971 15.5513 5.76175 -19.1943 0.304355 2.91605 14.7687 28.6852 -2.21062 -36.7398 0.0 0.0 -0.0 0.0 -0.0 -15.8135 9.14965 13.8271 -2.13292 -0.0819266 -0.31706 39.9514 2.96357 4.90011 -26.9749 0.0 0.0 0.0 0.0 0.0 
